<mxfile host="app.diagrams.net" modified="2024-05-22T12:04:50.179Z" agent="Mozilla/5.0 (Windows NT 10.0; Win64; x64) AppleWebKit/537.36 (KHTML, like Gecko) Chrome/121.0.0.0 Safari/537.36" etag="JGQ7RJzl1Xgk9jQg5swX" version="24.4.4" type="device">
  <diagram name="Página-1" id="ts3MnKSa-wJIKkYpEsXG">
    <mxGraphModel dx="1434" dy="782" grid="1" gridSize="10" guides="1" tooltips="1" connect="1" arrows="1" fold="1" page="1" pageScale="1" pageWidth="827" pageHeight="1169" math="0" shadow="0">
      <root>
        <mxCell id="0" />
        <mxCell id="1" parent="0" />
        <mxCell id="aqsFvduAmEihCFYsYaOM-1" value="&lt;b&gt;&lt;font style=&quot;font-size: 24px;&quot; face=&quot;Times New Roman&quot;&gt;Cadastrar Cliente&lt;/font&gt;&lt;/b&gt;" style="text;html=1;align=center;verticalAlign=middle;whiteSpace=wrap;rounded=0;" vertex="1" parent="1">
          <mxGeometry x="68.75" y="160" width="150" height="60" as="geometry" />
        </mxCell>
        <mxCell id="aqsFvduAmEihCFYsYaOM-3" style="edgeStyle=orthogonalEdgeStyle;rounded=0;orthogonalLoop=1;jettySize=auto;html=1;entryX=0.5;entryY=0;entryDx=0;entryDy=0;" edge="1" parent="1" source="aqsFvduAmEihCFYsYaOM-2" target="aqsFvduAmEihCFYsYaOM-4">
          <mxGeometry relative="1" as="geometry">
            <mxPoint x="143.75" y="355" as="targetPoint" />
            <Array as="points">
              <mxPoint x="143.75" y="330" />
              <mxPoint x="144.75" y="330" />
            </Array>
          </mxGeometry>
        </mxCell>
        <mxCell id="aqsFvduAmEihCFYsYaOM-2" value="Início" style="ellipse;whiteSpace=wrap;html=1;fillColor=#fff2cc;strokeColor=#d6b656;" vertex="1" parent="1">
          <mxGeometry x="83.75" y="225" width="120" height="80" as="geometry" />
        </mxCell>
        <mxCell id="aqsFvduAmEihCFYsYaOM-5" style="edgeStyle=orthogonalEdgeStyle;rounded=0;orthogonalLoop=1;jettySize=auto;html=1;" edge="1" parent="1" source="aqsFvduAmEihCFYsYaOM-4" target="aqsFvduAmEihCFYsYaOM-6">
          <mxGeometry relative="1" as="geometry">
            <mxPoint x="143.75" y="475" as="targetPoint" />
          </mxGeometry>
        </mxCell>
        <mxCell id="aqsFvduAmEihCFYsYaOM-4" value="Clicar na tela de &quot;clientes&quot;" style="rounded=0;whiteSpace=wrap;html=1;fillColor=#d5e8d4;strokeColor=#82b366;" vertex="1" parent="1">
          <mxGeometry x="83.75" y="355" width="120" height="60" as="geometry" />
        </mxCell>
        <mxCell id="aqsFvduAmEihCFYsYaOM-7" style="edgeStyle=orthogonalEdgeStyle;rounded=0;orthogonalLoop=1;jettySize=auto;html=1;" edge="1" parent="1" source="aqsFvduAmEihCFYsYaOM-6" target="aqsFvduAmEihCFYsYaOM-8">
          <mxGeometry relative="1" as="geometry">
            <mxPoint x="143.75" y="555" as="targetPoint" />
          </mxGeometry>
        </mxCell>
        <mxCell id="aqsFvduAmEihCFYsYaOM-6" value="Clicar em cadastrar cliente" style="rounded=0;whiteSpace=wrap;html=1;fillColor=#d5e8d4;strokeColor=#82b366;" vertex="1" parent="1">
          <mxGeometry x="83.75" y="445" width="120" height="60" as="geometry" />
        </mxCell>
        <mxCell id="aqsFvduAmEihCFYsYaOM-9" style="edgeStyle=orthogonalEdgeStyle;rounded=0;orthogonalLoop=1;jettySize=auto;html=1;" edge="1" parent="1" source="aqsFvduAmEihCFYsYaOM-8" target="aqsFvduAmEihCFYsYaOM-10">
          <mxGeometry relative="1" as="geometry">
            <mxPoint x="143.75" y="635" as="targetPoint" />
          </mxGeometry>
        </mxCell>
        <mxCell id="aqsFvduAmEihCFYsYaOM-8" value="Preencher as informações necessárias" style="rounded=0;whiteSpace=wrap;html=1;fillColor=#d5e8d4;strokeColor=#82b366;" vertex="1" parent="1">
          <mxGeometry x="83.75" y="525" width="120" height="60" as="geometry" />
        </mxCell>
        <mxCell id="aqsFvduAmEihCFYsYaOM-12" style="edgeStyle=orthogonalEdgeStyle;rounded=0;orthogonalLoop=1;jettySize=auto;html=1;entryX=1;entryY=0.25;entryDx=0;entryDy=0;" edge="1" parent="1" source="aqsFvduAmEihCFYsYaOM-10" target="aqsFvduAmEihCFYsYaOM-8">
          <mxGeometry relative="1" as="geometry">
            <Array as="points">
              <mxPoint x="218.75" y="660" />
              <mxPoint x="218.75" y="595" />
              <mxPoint x="223.75" y="595" />
              <mxPoint x="223.75" y="540" />
            </Array>
          </mxGeometry>
        </mxCell>
        <mxCell id="aqsFvduAmEihCFYsYaOM-13" value="não" style="edgeLabel;html=1;align=center;verticalAlign=middle;resizable=0;points=[];" vertex="1" connectable="0" parent="aqsFvduAmEihCFYsYaOM-12">
          <mxGeometry x="0.04" y="-5" relative="1" as="geometry">
            <mxPoint x="-4" y="5" as="offset" />
          </mxGeometry>
        </mxCell>
        <mxCell id="aqsFvduAmEihCFYsYaOM-14" style="edgeStyle=orthogonalEdgeStyle;rounded=0;orthogonalLoop=1;jettySize=auto;html=1;" edge="1" parent="1" source="aqsFvduAmEihCFYsYaOM-10" target="aqsFvduAmEihCFYsYaOM-15">
          <mxGeometry relative="1" as="geometry">
            <mxPoint x="143.75" y="755" as="targetPoint" />
            <Array as="points">
              <mxPoint x="143.75" y="725" />
              <mxPoint x="143.75" y="725" />
            </Array>
          </mxGeometry>
        </mxCell>
        <mxCell id="aqsFvduAmEihCFYsYaOM-16" value="sim" style="edgeLabel;html=1;align=center;verticalAlign=middle;resizable=0;points=[];" vertex="1" connectable="0" parent="aqsFvduAmEihCFYsYaOM-14">
          <mxGeometry x="-0.4982" y="-1" relative="1" as="geometry">
            <mxPoint as="offset" />
          </mxGeometry>
        </mxCell>
        <mxCell id="aqsFvduAmEihCFYsYaOM-10" value="as informações&amp;nbsp;&lt;div&gt;são válidas?&lt;/div&gt;" style="rhombus;whiteSpace=wrap;html=1;fillColor=#ffe6cc;strokeColor=#d79b00;" vertex="1" parent="1">
          <mxGeometry x="80" y="615" width="127.5" height="90" as="geometry" />
        </mxCell>
        <mxCell id="aqsFvduAmEihCFYsYaOM-17" style="edgeStyle=orthogonalEdgeStyle;rounded=0;orthogonalLoop=1;jettySize=auto;html=1;" edge="1" parent="1" source="aqsFvduAmEihCFYsYaOM-15" target="aqsFvduAmEihCFYsYaOM-18">
          <mxGeometry relative="1" as="geometry">
            <mxPoint x="143.75" y="905" as="targetPoint" />
          </mxGeometry>
        </mxCell>
        <mxCell id="aqsFvduAmEihCFYsYaOM-15" value="Confirmar cadastro" style="rounded=0;whiteSpace=wrap;html=1;fillColor=#d5e8d4;strokeColor=#82b366;" vertex="1" parent="1">
          <mxGeometry x="83.75" y="765" width="120" height="60" as="geometry" />
        </mxCell>
        <mxCell id="aqsFvduAmEihCFYsYaOM-18" value="Fim" style="ellipse;whiteSpace=wrap;html=1;fillColor=#f8cecc;strokeColor=#b85450;" vertex="1" parent="1">
          <mxGeometry x="83.75" y="865" width="120" height="80" as="geometry" />
        </mxCell>
        <mxCell id="aqsFvduAmEihCFYsYaOM-21" style="edgeStyle=orthogonalEdgeStyle;rounded=0;orthogonalLoop=1;jettySize=auto;html=1;" edge="1" parent="1" source="aqsFvduAmEihCFYsYaOM-19" target="aqsFvduAmEihCFYsYaOM-22">
          <mxGeometry relative="1" as="geometry">
            <mxPoint x="360" y="350" as="targetPoint" />
          </mxGeometry>
        </mxCell>
        <mxCell id="aqsFvduAmEihCFYsYaOM-19" value="início" style="ellipse;whiteSpace=wrap;html=1;fillColor=#fff2cc;strokeColor=#d6b656;" vertex="1" parent="1">
          <mxGeometry x="300" y="220" width="120" height="80" as="geometry" />
        </mxCell>
        <mxCell id="aqsFvduAmEihCFYsYaOM-20" value="&lt;font face=&quot;Times New Roman&quot;&gt;&lt;span style=&quot;font-size: 24px;&quot;&gt;&lt;b&gt;&amp;nbsp;Cadastrar Produto&lt;/b&gt;&lt;/span&gt;&lt;/font&gt;" style="text;html=1;align=center;verticalAlign=middle;resizable=0;points=[];autosize=1;strokeColor=none;fillColor=none;" vertex="1" parent="1">
          <mxGeometry x="260" y="160" width="220" height="40" as="geometry" />
        </mxCell>
        <mxCell id="aqsFvduAmEihCFYsYaOM-23" style="edgeStyle=orthogonalEdgeStyle;rounded=0;orthogonalLoop=1;jettySize=auto;html=1;" edge="1" parent="1" source="aqsFvduAmEihCFYsYaOM-22" target="aqsFvduAmEihCFYsYaOM-24">
          <mxGeometry relative="1" as="geometry">
            <mxPoint x="360" y="430" as="targetPoint" />
          </mxGeometry>
        </mxCell>
        <mxCell id="aqsFvduAmEihCFYsYaOM-22" value="na tela inicial ir para produto" style="rounded=0;whiteSpace=wrap;html=1;fillColor=#d5e8d4;strokeColor=#82b366;" vertex="1" parent="1">
          <mxGeometry x="300" y="320" width="120" height="60" as="geometry" />
        </mxCell>
        <mxCell id="aqsFvduAmEihCFYsYaOM-25" style="edgeStyle=orthogonalEdgeStyle;rounded=0;orthogonalLoop=1;jettySize=auto;html=1;" edge="1" parent="1" source="aqsFvduAmEihCFYsYaOM-24" target="aqsFvduAmEihCFYsYaOM-26">
          <mxGeometry relative="1" as="geometry">
            <mxPoint x="360" y="510" as="targetPoint" />
          </mxGeometry>
        </mxCell>
        <mxCell id="aqsFvduAmEihCFYsYaOM-24" value="opção cadastrar produto" style="rounded=0;whiteSpace=wrap;html=1;fillColor=#d5e8d4;strokeColor=#82b366;" vertex="1" parent="1">
          <mxGeometry x="300" y="400" width="120" height="60" as="geometry" />
        </mxCell>
        <mxCell id="aqsFvduAmEihCFYsYaOM-35" style="edgeStyle=orthogonalEdgeStyle;rounded=0;orthogonalLoop=1;jettySize=auto;html=1;" edge="1" parent="1" source="aqsFvduAmEihCFYsYaOM-26" target="aqsFvduAmEihCFYsYaOM-36">
          <mxGeometry relative="1" as="geometry">
            <mxPoint x="360" y="600" as="targetPoint" />
          </mxGeometry>
        </mxCell>
        <mxCell id="aqsFvduAmEihCFYsYaOM-26" value="digitar info.&amp;nbsp;&lt;div&gt;dos produtos&lt;/div&gt;" style="rounded=0;whiteSpace=wrap;html=1;fillColor=#d5e8d4;strokeColor=#82b366;" vertex="1" parent="1">
          <mxGeometry x="300" y="480" width="120" height="60" as="geometry" />
        </mxCell>
        <mxCell id="aqsFvduAmEihCFYsYaOM-29" value="quantidade, tipo(camiseta)&lt;div&gt;estampa, cor.&lt;/div&gt;" style="text;html=1;align=center;verticalAlign=middle;resizable=0;points=[];autosize=1;strokeColor=none;fillColor=none;fontStyle=1" vertex="1" parent="1">
          <mxGeometry x="440" y="505" width="160" height="40" as="geometry" />
        </mxCell>
        <mxCell id="aqsFvduAmEihCFYsYaOM-37" style="edgeStyle=orthogonalEdgeStyle;rounded=0;orthogonalLoop=1;jettySize=auto;html=1;entryX=0;entryY=0.5;entryDx=0;entryDy=0;" edge="1" parent="1" source="aqsFvduAmEihCFYsYaOM-36" target="aqsFvduAmEihCFYsYaOM-26">
          <mxGeometry relative="1" as="geometry">
            <Array as="points">
              <mxPoint x="280" y="620" />
              <mxPoint x="280" y="510" />
            </Array>
          </mxGeometry>
        </mxCell>
        <mxCell id="aqsFvduAmEihCFYsYaOM-38" value="não" style="edgeLabel;html=1;align=center;verticalAlign=middle;resizable=0;points=[];" vertex="1" connectable="0" parent="aqsFvduAmEihCFYsYaOM-37">
          <mxGeometry x="0.0933" relative="1" as="geometry">
            <mxPoint as="offset" />
          </mxGeometry>
        </mxCell>
        <mxCell id="aqsFvduAmEihCFYsYaOM-39" style="edgeStyle=orthogonalEdgeStyle;rounded=0;orthogonalLoop=1;jettySize=auto;html=1;entryX=0.5;entryY=0;entryDx=0;entryDy=0;" edge="1" parent="1" source="aqsFvduAmEihCFYsYaOM-36" target="aqsFvduAmEihCFYsYaOM-41">
          <mxGeometry relative="1" as="geometry">
            <mxPoint x="360" y="740" as="targetPoint" />
          </mxGeometry>
        </mxCell>
        <mxCell id="aqsFvduAmEihCFYsYaOM-40" value="sim" style="edgeLabel;html=1;align=center;verticalAlign=middle;resizable=0;points=[];" vertex="1" connectable="0" parent="aqsFvduAmEihCFYsYaOM-39">
          <mxGeometry x="-0.0808" y="-1" relative="1" as="geometry">
            <mxPoint as="offset" />
          </mxGeometry>
        </mxCell>
        <mxCell id="aqsFvduAmEihCFYsYaOM-36" value="as informações&amp;nbsp;&lt;div&gt;são válidas?&lt;/div&gt;" style="rhombus;whiteSpace=wrap;html=1;fillColor=#ffe6cc;strokeColor=#d79b00;" vertex="1" parent="1">
          <mxGeometry x="300" y="580" width="120" height="80" as="geometry" />
        </mxCell>
        <mxCell id="aqsFvduAmEihCFYsYaOM-42" style="edgeStyle=orthogonalEdgeStyle;rounded=0;orthogonalLoop=1;jettySize=auto;html=1;" edge="1" parent="1" source="aqsFvduAmEihCFYsYaOM-41" target="aqsFvduAmEihCFYsYaOM-43">
          <mxGeometry relative="1" as="geometry">
            <mxPoint x="360" y="830" as="targetPoint" />
          </mxGeometry>
        </mxCell>
        <mxCell id="aqsFvduAmEihCFYsYaOM-41" value="clicar em salvar" style="rounded=0;whiteSpace=wrap;html=1;fillColor=#d5e8d4;strokeColor=#82b366;" vertex="1" parent="1">
          <mxGeometry x="300" y="715" width="120" height="60" as="geometry" />
        </mxCell>
        <mxCell id="aqsFvduAmEihCFYsYaOM-43" value="Fim" style="ellipse;whiteSpace=wrap;html=1;fillColor=#f8cecc;strokeColor=#b85450;" vertex="1" parent="1">
          <mxGeometry x="300" y="810" width="120" height="80" as="geometry" />
        </mxCell>
        <mxCell id="aqsFvduAmEihCFYsYaOM-44" value="&lt;font style=&quot;font-size: 24px;&quot;&gt;Verificar tempo de produção e média diária&lt;/font&gt;" style="text;html=1;align=center;verticalAlign=middle;whiteSpace=wrap;rounded=0;fontStyle=1;fontFamily=Times New Roman;" vertex="1" parent="1">
          <mxGeometry x="630" y="190" width="230" height="30" as="geometry" />
        </mxCell>
        <mxCell id="aqsFvduAmEihCFYsYaOM-46" style="edgeStyle=orthogonalEdgeStyle;rounded=0;orthogonalLoop=1;jettySize=auto;html=1;" edge="1" parent="1" source="aqsFvduAmEihCFYsYaOM-45" target="aqsFvduAmEihCFYsYaOM-47">
          <mxGeometry relative="1" as="geometry">
            <mxPoint x="745" y="390" as="targetPoint" />
          </mxGeometry>
        </mxCell>
        <mxCell id="aqsFvduAmEihCFYsYaOM-45" value="Início" style="ellipse;whiteSpace=wrap;html=1;fillColor=#fff2cc;strokeColor=#d6b656;" vertex="1" parent="1">
          <mxGeometry x="685" y="260" width="120" height="80" as="geometry" />
        </mxCell>
        <mxCell id="aqsFvduAmEihCFYsYaOM-48" style="edgeStyle=orthogonalEdgeStyle;rounded=0;orthogonalLoop=1;jettySize=auto;html=1;" edge="1" parent="1" source="aqsFvduAmEihCFYsYaOM-47" target="aqsFvduAmEihCFYsYaOM-49">
          <mxGeometry relative="1" as="geometry">
            <mxPoint x="745" y="470" as="targetPoint" />
          </mxGeometry>
        </mxCell>
        <mxCell id="aqsFvduAmEihCFYsYaOM-47" value="Ir para tela tempo de produção" style="rounded=0;whiteSpace=wrap;html=1;fillColor=#d5e8d4;strokeColor=#82b366;" vertex="1" parent="1">
          <mxGeometry x="687.5" y="360" width="115" height="60" as="geometry" />
        </mxCell>
        <mxCell id="aqsFvduAmEihCFYsYaOM-55" style="edgeStyle=orthogonalEdgeStyle;rounded=0;orthogonalLoop=1;jettySize=auto;html=1;" edge="1" parent="1" source="aqsFvduAmEihCFYsYaOM-49" target="aqsFvduAmEihCFYsYaOM-56">
          <mxGeometry relative="1" as="geometry">
            <mxPoint x="745" y="540" as="targetPoint" />
          </mxGeometry>
        </mxCell>
        <mxCell id="aqsFvduAmEihCFYsYaOM-49" value="Pesquisar na barra de pesquisa clientes" style="rounded=0;whiteSpace=wrap;html=1;fillColor=#d5e8d4;strokeColor=#82b366;" vertex="1" parent="1">
          <mxGeometry x="685" y="440" width="120" height="60" as="geometry" />
        </mxCell>
        <mxCell id="aqsFvduAmEihCFYsYaOM-52" value="&lt;span style=&quot;font-size: 14px;&quot;&gt;&amp;nbsp;* ou produto&lt;/span&gt;" style="text;html=1;align=center;verticalAlign=middle;resizable=0;points=[];autosize=1;strokeColor=none;fillColor=none;" vertex="1" parent="1">
          <mxGeometry x="810" y="470" width="100" height="30" as="geometry" />
        </mxCell>
        <mxCell id="aqsFvduAmEihCFYsYaOM-53" value="exemplo:" style="text;html=1;align=center;verticalAlign=middle;resizable=0;points=[];autosize=1;strokeColor=none;fillColor=none;fontStyle=1" vertex="1" parent="1">
          <mxGeometry x="430" y="480" width="70" height="30" as="geometry" />
        </mxCell>
        <mxCell id="aqsFvduAmEihCFYsYaOM-54" value="exemplo:" style="text;html=1;align=center;verticalAlign=middle;resizable=0;points=[];autosize=1;strokeColor=none;fillColor=none;" vertex="1" parent="1">
          <mxGeometry x="805" y="445" width="70" height="30" as="geometry" />
        </mxCell>
        <mxCell id="aqsFvduAmEihCFYsYaOM-57" style="edgeStyle=orthogonalEdgeStyle;rounded=0;orthogonalLoop=1;jettySize=auto;html=1;" edge="1" parent="1" source="aqsFvduAmEihCFYsYaOM-56" target="aqsFvduAmEihCFYsYaOM-59">
          <mxGeometry relative="1" as="geometry">
            <mxPoint x="910" y="560" as="targetPoint" />
            <Array as="points">
              <mxPoint x="854" y="560" />
              <mxPoint x="854" y="561" />
            </Array>
          </mxGeometry>
        </mxCell>
        <mxCell id="aqsFvduAmEihCFYsYaOM-58" value="não" style="edgeLabel;html=1;align=center;verticalAlign=middle;resizable=0;points=[];" vertex="1" connectable="0" parent="aqsFvduAmEihCFYsYaOM-57">
          <mxGeometry x="-0.177" y="-3" relative="1" as="geometry">
            <mxPoint as="offset" />
          </mxGeometry>
        </mxCell>
        <mxCell id="aqsFvduAmEihCFYsYaOM-60" style="edgeStyle=orthogonalEdgeStyle;rounded=0;orthogonalLoop=1;jettySize=auto;html=1;" edge="1" parent="1" source="aqsFvduAmEihCFYsYaOM-56" target="aqsFvduAmEihCFYsYaOM-61">
          <mxGeometry relative="1" as="geometry">
            <mxPoint x="745" y="660" as="targetPoint" />
          </mxGeometry>
        </mxCell>
        <mxCell id="aqsFvduAmEihCFYsYaOM-62" value="sim" style="edgeLabel;html=1;align=center;verticalAlign=middle;resizable=0;points=[];" vertex="1" connectable="0" parent="aqsFvduAmEihCFYsYaOM-60">
          <mxGeometry x="-0.6" y="-3" relative="1" as="geometry">
            <mxPoint as="offset" />
          </mxGeometry>
        </mxCell>
        <mxCell id="aqsFvduAmEihCFYsYaOM-56" value="Foi encontrado" style="rhombus;whiteSpace=wrap;html=1;fillColor=#ffe6cc;strokeColor=#d79b00;" vertex="1" parent="1">
          <mxGeometry x="692.5" y="525" width="105" height="80" as="geometry" />
        </mxCell>
        <mxCell id="aqsFvduAmEihCFYsYaOM-59" value="Ir para tela cadastrar cliente" style="rounded=0;whiteSpace=wrap;html=1;fillColor=#d5e8d4;strokeColor=#82b366;" vertex="1" parent="1">
          <mxGeometry x="850" y="530" width="120" height="60" as="geometry" />
        </mxCell>
        <mxCell id="aqsFvduAmEihCFYsYaOM-63" style="edgeStyle=orthogonalEdgeStyle;rounded=0;orthogonalLoop=1;jettySize=auto;html=1;" edge="1" parent="1" source="aqsFvduAmEihCFYsYaOM-61" target="aqsFvduAmEihCFYsYaOM-65">
          <mxGeometry relative="1" as="geometry">
            <mxPoint x="745" y="760" as="targetPoint" />
          </mxGeometry>
        </mxCell>
        <mxCell id="aqsFvduAmEihCFYsYaOM-61" value="Digitar a média diária e tempo" style="rounded=0;whiteSpace=wrap;html=1;fillColor=#d5e8d4;strokeColor=#82b366;" vertex="1" parent="1">
          <mxGeometry x="685" y="660" width="120" height="60" as="geometry" />
        </mxCell>
        <mxCell id="aqsFvduAmEihCFYsYaOM-66" style="edgeStyle=orthogonalEdgeStyle;rounded=0;orthogonalLoop=1;jettySize=auto;html=1;" edge="1" parent="1" source="aqsFvduAmEihCFYsYaOM-65" target="aqsFvduAmEihCFYsYaOM-73">
          <mxGeometry relative="1" as="geometry">
            <mxPoint x="745" y="900" as="targetPoint" />
          </mxGeometry>
        </mxCell>
        <mxCell id="aqsFvduAmEihCFYsYaOM-67" value="sim" style="edgeLabel;html=1;align=center;verticalAlign=middle;resizable=0;points=[];" vertex="1" connectable="0" parent="aqsFvduAmEihCFYsYaOM-66">
          <mxGeometry x="0.062" y="2" relative="1" as="geometry">
            <mxPoint as="offset" />
          </mxGeometry>
        </mxCell>
        <mxCell id="aqsFvduAmEihCFYsYaOM-68" style="edgeStyle=orthogonalEdgeStyle;rounded=0;orthogonalLoop=1;jettySize=auto;html=1;" edge="1" parent="1" source="aqsFvduAmEihCFYsYaOM-65" target="aqsFvduAmEihCFYsYaOM-70">
          <mxGeometry relative="1" as="geometry">
            <mxPoint x="880" y="805" as="targetPoint" />
          </mxGeometry>
        </mxCell>
        <mxCell id="aqsFvduAmEihCFYsYaOM-69" value="não" style="edgeLabel;html=1;align=center;verticalAlign=middle;resizable=0;points=[];" vertex="1" connectable="0" parent="aqsFvduAmEihCFYsYaOM-68">
          <mxGeometry x="0.1335" y="-1" relative="1" as="geometry">
            <mxPoint as="offset" />
          </mxGeometry>
        </mxCell>
        <mxCell id="aqsFvduAmEihCFYsYaOM-65" value="bateu a meta?" style="rhombus;whiteSpace=wrap;html=1;fillColor=#ffe6cc;strokeColor=#d79b00;" vertex="1" parent="1">
          <mxGeometry x="692.5" y="765" width="105" height="80" as="geometry" />
        </mxCell>
        <mxCell id="aqsFvduAmEihCFYsYaOM-71" style="edgeStyle=orthogonalEdgeStyle;rounded=0;orthogonalLoop=1;jettySize=auto;html=1;" edge="1" parent="1" source="aqsFvduAmEihCFYsYaOM-70" target="aqsFvduAmEihCFYsYaOM-72">
          <mxGeometry relative="1" as="geometry">
            <mxPoint x="1030" y="805" as="targetPoint" />
          </mxGeometry>
        </mxCell>
        <mxCell id="aqsFvduAmEihCFYsYaOM-70" value="mostrar na tela quantidade de produtos faltantes.&amp;nbsp;" style="rounded=0;whiteSpace=wrap;html=1;fillColor=#d5e8d4;strokeColor=#82b366;" vertex="1" parent="1">
          <mxGeometry x="850" y="775" width="120" height="60" as="geometry" />
        </mxCell>
        <mxCell id="aqsFvduAmEihCFYsYaOM-72" value="na próxima seção indicar com um aviso na tela inicial a falta de demanda." style="rounded=0;whiteSpace=wrap;html=1;fillColor=#d5e8d4;strokeColor=#82b366;" vertex="1" parent="1">
          <mxGeometry x="1030" y="757.5" width="120" height="95" as="geometry" />
        </mxCell>
        <mxCell id="aqsFvduAmEihCFYsYaOM-74" style="edgeStyle=orthogonalEdgeStyle;rounded=0;orthogonalLoop=1;jettySize=auto;html=1;" edge="1" parent="1" source="aqsFvduAmEihCFYsYaOM-73" target="aqsFvduAmEihCFYsYaOM-75">
          <mxGeometry relative="1" as="geometry">
            <mxPoint x="745" y="1000" as="targetPoint" />
          </mxGeometry>
        </mxCell>
        <mxCell id="aqsFvduAmEihCFYsYaOM-73" value="mostrar na tela &quot;meta batida&quot;" style="rounded=0;whiteSpace=wrap;html=1;fillColor=#d5e8d4;strokeColor=#82b366;" vertex="1" parent="1">
          <mxGeometry x="685" y="890" width="120" height="60" as="geometry" />
        </mxCell>
        <mxCell id="aqsFvduAmEihCFYsYaOM-76" style="edgeStyle=orthogonalEdgeStyle;rounded=0;orthogonalLoop=1;jettySize=auto;html=1;" edge="1" parent="1" source="aqsFvduAmEihCFYsYaOM-75" target="aqsFvduAmEihCFYsYaOM-77">
          <mxGeometry relative="1" as="geometry">
            <mxPoint x="920" y="1030" as="targetPoint" />
          </mxGeometry>
        </mxCell>
        <mxCell id="aqsFvduAmEihCFYsYaOM-75" value="Salvar progresso" style="rounded=0;whiteSpace=wrap;html=1;fillColor=#d5e8d4;strokeColor=#82b366;" vertex="1" parent="1">
          <mxGeometry x="687.5" y="1000" width="120" height="60" as="geometry" />
        </mxCell>
        <mxCell id="aqsFvduAmEihCFYsYaOM-77" value="Fim" style="ellipse;whiteSpace=wrap;html=1;fillColor=#f8cecc;strokeColor=#b85450;" vertex="1" parent="1">
          <mxGeometry x="860" y="990" width="120" height="80" as="geometry" />
        </mxCell>
        <mxCell id="aqsFvduAmEihCFYsYaOM-78" style="edgeStyle=orthogonalEdgeStyle;rounded=0;orthogonalLoop=1;jettySize=auto;html=1;entryX=1.017;entryY=0.6;entryDx=0;entryDy=0;entryPerimeter=0;" edge="1" parent="1" source="aqsFvduAmEihCFYsYaOM-72" target="aqsFvduAmEihCFYsYaOM-77">
          <mxGeometry relative="1" as="geometry">
            <Array as="points">
              <mxPoint x="1090" y="860" />
              <mxPoint x="1080" y="860" />
              <mxPoint x="1080" y="1038" />
            </Array>
          </mxGeometry>
        </mxCell>
        <mxCell id="aqsFvduAmEihCFYsYaOM-81" style="edgeStyle=orthogonalEdgeStyle;rounded=0;orthogonalLoop=1;jettySize=auto;html=1;" edge="1" parent="1" source="aqsFvduAmEihCFYsYaOM-79" target="aqsFvduAmEihCFYsYaOM-82">
          <mxGeometry relative="1" as="geometry">
            <mxPoint x="1310" y="437" as="targetPoint" />
          </mxGeometry>
        </mxCell>
        <mxCell id="aqsFvduAmEihCFYsYaOM-79" value="Início" style="ellipse;whiteSpace=wrap;html=1;fillColor=#fff2cc;strokeColor=#d6b656;" vertex="1" parent="1">
          <mxGeometry x="1250" y="307" width="120" height="80" as="geometry" />
        </mxCell>
        <mxCell id="aqsFvduAmEihCFYsYaOM-80" value="&lt;b&gt;&lt;font style=&quot;font-size: 24px;&quot; face=&quot;Times New Roman&quot;&gt;Atualizar Cliente&lt;/font&gt;&lt;/b&gt;" style="text;html=1;align=center;verticalAlign=middle;resizable=0;points=[];autosize=1;strokeColor=none;fillColor=none;" vertex="1" parent="1">
          <mxGeometry x="1200" y="245" width="200" height="40" as="geometry" />
        </mxCell>
        <mxCell id="aqsFvduAmEihCFYsYaOM-83" style="edgeStyle=orthogonalEdgeStyle;rounded=0;orthogonalLoop=1;jettySize=auto;html=1;" edge="1" parent="1" source="aqsFvduAmEihCFYsYaOM-82" target="aqsFvduAmEihCFYsYaOM-84">
          <mxGeometry relative="1" as="geometry">
            <mxPoint x="1310" y="517" as="targetPoint" />
          </mxGeometry>
        </mxCell>
        <mxCell id="aqsFvduAmEihCFYsYaOM-82" value="Clicar em &quot;clientes&quot;" style="rounded=0;whiteSpace=wrap;html=1;fillColor=#d5e8d4;strokeColor=#82b366;" vertex="1" parent="1">
          <mxGeometry x="1250" y="407" width="120" height="60" as="geometry" />
        </mxCell>
        <mxCell id="aqsFvduAmEihCFYsYaOM-85" style="edgeStyle=orthogonalEdgeStyle;rounded=0;orthogonalLoop=1;jettySize=auto;html=1;" edge="1" parent="1" source="aqsFvduAmEihCFYsYaOM-84" target="aqsFvduAmEihCFYsYaOM-86">
          <mxGeometry relative="1" as="geometry">
            <mxPoint x="1310" y="587" as="targetPoint" />
          </mxGeometry>
        </mxCell>
        <mxCell id="aqsFvduAmEihCFYsYaOM-84" value="escolher cliente" style="rounded=0;whiteSpace=wrap;html=1;fillColor=#d5e8d4;strokeColor=#82b366;" vertex="1" parent="1">
          <mxGeometry x="1250" y="487" width="120" height="60" as="geometry" />
        </mxCell>
        <mxCell id="aqsFvduAmEihCFYsYaOM-87" style="edgeStyle=orthogonalEdgeStyle;rounded=0;orthogonalLoop=1;jettySize=auto;html=1;" edge="1" parent="1" source="aqsFvduAmEihCFYsYaOM-86" target="aqsFvduAmEihCFYsYaOM-88">
          <mxGeometry relative="1" as="geometry">
            <mxPoint x="1310" y="667" as="targetPoint" />
          </mxGeometry>
        </mxCell>
        <mxCell id="aqsFvduAmEihCFYsYaOM-86" value="editar cliente" style="rounded=0;whiteSpace=wrap;html=1;fillColor=#d5e8d4;strokeColor=#82b366;" vertex="1" parent="1">
          <mxGeometry x="1250" y="567" width="120" height="60" as="geometry" />
        </mxCell>
        <mxCell id="aqsFvduAmEihCFYsYaOM-89" style="edgeStyle=orthogonalEdgeStyle;rounded=0;orthogonalLoop=1;jettySize=auto;html=1;" edge="1" parent="1" source="aqsFvduAmEihCFYsYaOM-88" target="aqsFvduAmEihCFYsYaOM-90">
          <mxGeometry relative="1" as="geometry">
            <mxPoint x="1310" y="757" as="targetPoint" />
          </mxGeometry>
        </mxCell>
        <mxCell id="aqsFvduAmEihCFYsYaOM-88" value="editor informações" style="rounded=0;whiteSpace=wrap;html=1;fillColor=#d5e8d4;strokeColor=#82b366;" vertex="1" parent="1">
          <mxGeometry x="1250" y="652" width="120" height="60" as="geometry" />
        </mxCell>
        <mxCell id="aqsFvduAmEihCFYsYaOM-94" style="edgeStyle=orthogonalEdgeStyle;rounded=0;orthogonalLoop=1;jettySize=auto;html=1;" edge="1" parent="1" source="aqsFvduAmEihCFYsYaOM-90" target="aqsFvduAmEihCFYsYaOM-96">
          <mxGeometry relative="1" as="geometry">
            <mxPoint x="1310" y="907" as="targetPoint" />
          </mxGeometry>
        </mxCell>
        <mxCell id="aqsFvduAmEihCFYsYaOM-95" value="sim" style="edgeLabel;html=1;align=center;verticalAlign=middle;resizable=0;points=[];" vertex="1" connectable="0" parent="aqsFvduAmEihCFYsYaOM-94">
          <mxGeometry x="-0.0729" y="-3" relative="1" as="geometry">
            <mxPoint as="offset" />
          </mxGeometry>
        </mxCell>
        <mxCell id="aqsFvduAmEihCFYsYaOM-90" value="as informações editados são válidos?" style="rhombus;whiteSpace=wrap;html=1;fillColor=#ffe6cc;strokeColor=#d79b00;" vertex="1" parent="1">
          <mxGeometry x="1240" y="742" width="140" height="90" as="geometry" />
        </mxCell>
        <mxCell id="aqsFvduAmEihCFYsYaOM-92" style="edgeStyle=orthogonalEdgeStyle;rounded=0;orthogonalLoop=1;jettySize=auto;html=1;entryX=1.008;entryY=0.383;entryDx=0;entryDy=0;entryPerimeter=0;" edge="1" parent="1" source="aqsFvduAmEihCFYsYaOM-90" target="aqsFvduAmEihCFYsYaOM-86">
          <mxGeometry relative="1" as="geometry">
            <Array as="points">
              <mxPoint x="1400" y="787" />
              <mxPoint x="1400" y="590" />
            </Array>
          </mxGeometry>
        </mxCell>
        <mxCell id="aqsFvduAmEihCFYsYaOM-93" value="não" style="edgeLabel;html=1;align=center;verticalAlign=middle;resizable=0;points=[];" vertex="1" connectable="0" parent="aqsFvduAmEihCFYsYaOM-92">
          <mxGeometry x="-0.244" y="2" relative="1" as="geometry">
            <mxPoint as="offset" />
          </mxGeometry>
        </mxCell>
        <mxCell id="aqsFvduAmEihCFYsYaOM-97" style="edgeStyle=orthogonalEdgeStyle;rounded=0;orthogonalLoop=1;jettySize=auto;html=1;" edge="1" parent="1" source="aqsFvduAmEihCFYsYaOM-96" target="aqsFvduAmEihCFYsYaOM-98">
          <mxGeometry relative="1" as="geometry">
            <mxPoint x="1310" y="977" as="targetPoint" />
          </mxGeometry>
        </mxCell>
        <mxCell id="aqsFvduAmEihCFYsYaOM-96" value="atualizar cliente" style="rounded=0;whiteSpace=wrap;html=1;fillColor=#d5e8d4;strokeColor=#82b366;" vertex="1" parent="1">
          <mxGeometry x="1250" y="867" width="120" height="60" as="geometry" />
        </mxCell>
        <mxCell id="aqsFvduAmEihCFYsYaOM-98" value="Fim" style="ellipse;whiteSpace=wrap;html=1;fillColor=#f8cecc;strokeColor=#b85450;" vertex="1" parent="1">
          <mxGeometry x="1250" y="952" width="120" height="80" as="geometry" />
        </mxCell>
        <mxCell id="aqsFvduAmEihCFYsYaOM-99" value="&lt;font face=&quot;Times New Roman&quot;&gt;&lt;span style=&quot;font-size: 24px;&quot;&gt;&lt;b&gt;Apagar Produto&lt;/b&gt;&lt;/span&gt;&lt;/font&gt;" style="text;html=1;align=center;verticalAlign=middle;whiteSpace=wrap;rounded=0;" vertex="1" parent="1">
          <mxGeometry x="1580" y="270" width="96" height="30" as="geometry" />
        </mxCell>
        <mxCell id="aqsFvduAmEihCFYsYaOM-101" style="edgeStyle=orthogonalEdgeStyle;rounded=0;orthogonalLoop=1;jettySize=auto;html=1;" edge="1" parent="1" source="aqsFvduAmEihCFYsYaOM-100" target="aqsFvduAmEihCFYsYaOM-102">
          <mxGeometry relative="1" as="geometry">
            <mxPoint x="1630" y="440" as="targetPoint" />
          </mxGeometry>
        </mxCell>
        <mxCell id="aqsFvduAmEihCFYsYaOM-100" value="Início" style="ellipse;whiteSpace=wrap;html=1;fillColor=#fff2cc;strokeColor=#d6b656;" vertex="1" parent="1">
          <mxGeometry x="1570" y="327" width="120" height="80" as="geometry" />
        </mxCell>
        <mxCell id="aqsFvduAmEihCFYsYaOM-103" style="edgeStyle=orthogonalEdgeStyle;rounded=0;orthogonalLoop=1;jettySize=auto;html=1;" edge="1" parent="1" source="aqsFvduAmEihCFYsYaOM-102" target="aqsFvduAmEihCFYsYaOM-104">
          <mxGeometry relative="1" as="geometry">
            <mxPoint x="1628" y="530" as="targetPoint" />
          </mxGeometry>
        </mxCell>
        <mxCell id="aqsFvduAmEihCFYsYaOM-102" value="dentro da tela produto clicar em remover" style="rounded=0;whiteSpace=wrap;html=1;fillColor=#d5e8d4;strokeColor=#82b366;" vertex="1" parent="1">
          <mxGeometry x="1568" y="427" width="120" height="60" as="geometry" />
        </mxCell>
        <mxCell id="aqsFvduAmEihCFYsYaOM-105" style="edgeStyle=orthogonalEdgeStyle;rounded=0;orthogonalLoop=1;jettySize=auto;html=1;" edge="1" parent="1" source="aqsFvduAmEihCFYsYaOM-104" target="aqsFvduAmEihCFYsYaOM-106">
          <mxGeometry relative="1" as="geometry">
            <mxPoint x="1628" y="610" as="targetPoint" />
          </mxGeometry>
        </mxCell>
        <mxCell id="aqsFvduAmEihCFYsYaOM-104" value="aparecer na tela espaço para digitar o motivo" style="rounded=0;whiteSpace=wrap;html=1;fillColor=#d5e8d4;strokeColor=#82b366;" vertex="1" parent="1">
          <mxGeometry x="1568" y="507" width="120" height="60" as="geometry" />
        </mxCell>
        <mxCell id="aqsFvduAmEihCFYsYaOM-107" style="edgeStyle=orthogonalEdgeStyle;rounded=0;orthogonalLoop=1;jettySize=auto;html=1;" edge="1" parent="1" source="aqsFvduAmEihCFYsYaOM-106" target="aqsFvduAmEihCFYsYaOM-108">
          <mxGeometry relative="1" as="geometry">
            <mxPoint x="1628" y="690" as="targetPoint" />
          </mxGeometry>
        </mxCell>
        <mxCell id="aqsFvduAmEihCFYsYaOM-106" value="digitar motivo" style="rounded=0;whiteSpace=wrap;html=1;fillColor=#d5e8d4;strokeColor=#82b366;" vertex="1" parent="1">
          <mxGeometry x="1568" y="592" width="120" height="60" as="geometry" />
        </mxCell>
        <mxCell id="aqsFvduAmEihCFYsYaOM-109" style="edgeStyle=orthogonalEdgeStyle;rounded=0;orthogonalLoop=1;jettySize=auto;html=1;entryX=1;entryY=0.25;entryDx=0;entryDy=0;" edge="1" parent="1" source="aqsFvduAmEihCFYsYaOM-108" target="aqsFvduAmEihCFYsYaOM-106">
          <mxGeometry relative="1" as="geometry">
            <Array as="points">
              <mxPoint x="1708" y="725" />
              <mxPoint x="1708" y="607" />
            </Array>
          </mxGeometry>
        </mxCell>
        <mxCell id="aqsFvduAmEihCFYsYaOM-110" value="não" style="edgeLabel;html=1;align=center;verticalAlign=middle;resizable=0;points=[];" vertex="1" connectable="0" parent="aqsFvduAmEihCFYsYaOM-109">
          <mxGeometry x="-0.1856" y="-1" relative="1" as="geometry">
            <mxPoint as="offset" />
          </mxGeometry>
        </mxCell>
        <mxCell id="aqsFvduAmEihCFYsYaOM-111" style="edgeStyle=orthogonalEdgeStyle;rounded=0;orthogonalLoop=1;jettySize=auto;html=1;entryX=0.5;entryY=0;entryDx=0;entryDy=0;" edge="1" parent="1" source="aqsFvduAmEihCFYsYaOM-108" target="aqsFvduAmEihCFYsYaOM-113">
          <mxGeometry relative="1" as="geometry">
            <mxPoint x="1628" y="810" as="targetPoint" />
          </mxGeometry>
        </mxCell>
        <mxCell id="aqsFvduAmEihCFYsYaOM-112" value="sim" style="edgeLabel;html=1;align=center;verticalAlign=middle;resizable=0;points=[];" vertex="1" connectable="0" parent="aqsFvduAmEihCFYsYaOM-111">
          <mxGeometry x="-0.2089" y="1" relative="1" as="geometry">
            <mxPoint as="offset" />
          </mxGeometry>
        </mxCell>
        <mxCell id="aqsFvduAmEihCFYsYaOM-108" value="o espaço foi preenchido?" style="rhombus;whiteSpace=wrap;html=1;fillColor=#ffe6cc;strokeColor=#d79b00;" vertex="1" parent="1">
          <mxGeometry x="1577" y="685" width="102" height="80" as="geometry" />
        </mxCell>
        <mxCell id="aqsFvduAmEihCFYsYaOM-114" style="edgeStyle=orthogonalEdgeStyle;rounded=0;orthogonalLoop=1;jettySize=auto;html=1;" edge="1" parent="1" source="aqsFvduAmEihCFYsYaOM-113" target="aqsFvduAmEihCFYsYaOM-115">
          <mxGeometry relative="1" as="geometry">
            <mxPoint x="1628" y="930" as="targetPoint" />
          </mxGeometry>
        </mxCell>
        <mxCell id="aqsFvduAmEihCFYsYaOM-113" value="remover" style="rounded=0;whiteSpace=wrap;html=1;fillColor=#d5e8d4;strokeColor=#82b366;" vertex="1" parent="1">
          <mxGeometry x="1568" y="820" width="120" height="60" as="geometry" />
        </mxCell>
        <mxCell id="aqsFvduAmEihCFYsYaOM-115" value="Fim" style="ellipse;whiteSpace=wrap;html=1;fillColor=#f8cecc;strokeColor=#b85450;" vertex="1" parent="1">
          <mxGeometry x="1568" y="910" width="120" height="80" as="geometry" />
        </mxCell>
        <mxCell id="aqsFvduAmEihCFYsYaOM-116" value="&lt;font style=&quot;font-size: 24px;&quot; face=&quot;Times New Roman&quot;&gt;&lt;b style=&quot;&quot;&gt;Apagar cliente&lt;/b&gt;&lt;/font&gt;" style="text;html=1;align=center;verticalAlign=middle;whiteSpace=wrap;rounded=0;" vertex="1" parent="1">
          <mxGeometry x="1840" y="270" width="160" height="30" as="geometry" />
        </mxCell>
        <mxCell id="aqsFvduAmEihCFYsYaOM-118" style="edgeStyle=orthogonalEdgeStyle;rounded=0;orthogonalLoop=1;jettySize=auto;html=1;" edge="1" parent="1" source="aqsFvduAmEihCFYsYaOM-117" target="aqsFvduAmEihCFYsYaOM-119">
          <mxGeometry relative="1" as="geometry">
            <mxPoint x="1920" y="430" as="targetPoint" />
          </mxGeometry>
        </mxCell>
        <mxCell id="aqsFvduAmEihCFYsYaOM-117" value="Início" style="ellipse;whiteSpace=wrap;html=1;fillColor=#fff2cc;strokeColor=#d6b656;" vertex="1" parent="1">
          <mxGeometry x="1860" y="307" width="120" height="80" as="geometry" />
        </mxCell>
        <mxCell id="aqsFvduAmEihCFYsYaOM-120" style="edgeStyle=orthogonalEdgeStyle;rounded=0;orthogonalLoop=1;jettySize=auto;html=1;" edge="1" parent="1" source="aqsFvduAmEihCFYsYaOM-119" target="aqsFvduAmEihCFYsYaOM-121">
          <mxGeometry relative="1" as="geometry">
            <mxPoint x="1920" y="510" as="targetPoint" />
          </mxGeometry>
        </mxCell>
        <mxCell id="aqsFvduAmEihCFYsYaOM-119" value="dentro da tela cliente clicar em remover" style="rounded=0;whiteSpace=wrap;html=1;fillColor=#d5e8d4;strokeColor=#82b366;" vertex="1" parent="1">
          <mxGeometry x="1860" y="415" width="120" height="60" as="geometry" />
        </mxCell>
        <mxCell id="aqsFvduAmEihCFYsYaOM-122" style="edgeStyle=orthogonalEdgeStyle;rounded=0;orthogonalLoop=1;jettySize=auto;html=1;" edge="1" parent="1" source="aqsFvduAmEihCFYsYaOM-121" target="aqsFvduAmEihCFYsYaOM-123">
          <mxGeometry relative="1" as="geometry">
            <mxPoint x="1920" y="610" as="targetPoint" />
          </mxGeometry>
        </mxCell>
        <mxCell id="aqsFvduAmEihCFYsYaOM-121" value="aparecer na tela espaço para digitar motivo" style="rounded=0;whiteSpace=wrap;html=1;fillColor=#d5e8d4;strokeColor=#82b366;" vertex="1" parent="1">
          <mxGeometry x="1860" y="495" width="120" height="60" as="geometry" />
        </mxCell>
        <mxCell id="aqsFvduAmEihCFYsYaOM-124" style="edgeStyle=orthogonalEdgeStyle;rounded=0;orthogonalLoop=1;jettySize=auto;html=1;" edge="1" parent="1" source="aqsFvduAmEihCFYsYaOM-123" target="aqsFvduAmEihCFYsYaOM-125">
          <mxGeometry relative="1" as="geometry">
            <mxPoint x="1920" y="700" as="targetPoint" />
          </mxGeometry>
        </mxCell>
        <mxCell id="aqsFvduAmEihCFYsYaOM-123" value="digitar o motivo" style="rounded=0;whiteSpace=wrap;html=1;fillColor=#d5e8d4;strokeColor=#82b366;" vertex="1" parent="1">
          <mxGeometry x="1860" y="580" width="120" height="60" as="geometry" />
        </mxCell>
        <mxCell id="aqsFvduAmEihCFYsYaOM-126" style="edgeStyle=orthogonalEdgeStyle;rounded=0;orthogonalLoop=1;jettySize=auto;html=1;entryX=1.008;entryY=0.65;entryDx=0;entryDy=0;entryPerimeter=0;" edge="1" parent="1" source="aqsFvduAmEihCFYsYaOM-125" target="aqsFvduAmEihCFYsYaOM-123">
          <mxGeometry relative="1" as="geometry">
            <mxPoint x="1990" y="610" as="targetPoint" />
            <Array as="points">
              <mxPoint x="2000" y="725" />
              <mxPoint x="2000" y="619" />
            </Array>
          </mxGeometry>
        </mxCell>
        <mxCell id="aqsFvduAmEihCFYsYaOM-127" value="não" style="edgeLabel;html=1;align=center;verticalAlign=middle;resizable=0;points=[];" vertex="1" connectable="0" parent="aqsFvduAmEihCFYsYaOM-126">
          <mxGeometry x="-0.226" y="-3" relative="1" as="geometry">
            <mxPoint as="offset" />
          </mxGeometry>
        </mxCell>
        <mxCell id="aqsFvduAmEihCFYsYaOM-128" style="edgeStyle=orthogonalEdgeStyle;rounded=0;orthogonalLoop=1;jettySize=auto;html=1;" edge="1" parent="1" source="aqsFvduAmEihCFYsYaOM-125" target="aqsFvduAmEihCFYsYaOM-130">
          <mxGeometry relative="1" as="geometry">
            <mxPoint x="1920" y="830" as="targetPoint" />
          </mxGeometry>
        </mxCell>
        <mxCell id="aqsFvduAmEihCFYsYaOM-129" value="sim" style="edgeLabel;html=1;align=center;verticalAlign=middle;resizable=0;points=[];" vertex="1" connectable="0" parent="aqsFvduAmEihCFYsYaOM-128">
          <mxGeometry x="0.0221" y="2" relative="1" as="geometry">
            <mxPoint as="offset" />
          </mxGeometry>
        </mxCell>
        <mxCell id="aqsFvduAmEihCFYsYaOM-125" value="o espaço foi preenchido?" style="rhombus;whiteSpace=wrap;html=1;fillColor=#ffe6cc;strokeColor=#d79b00;" vertex="1" parent="1">
          <mxGeometry x="1870" y="685" width="100" height="80" as="geometry" />
        </mxCell>
        <mxCell id="aqsFvduAmEihCFYsYaOM-131" style="edgeStyle=orthogonalEdgeStyle;rounded=0;orthogonalLoop=1;jettySize=auto;html=1;" edge="1" parent="1" source="aqsFvduAmEihCFYsYaOM-130" target="aqsFvduAmEihCFYsYaOM-132">
          <mxGeometry relative="1" as="geometry">
            <mxPoint x="1920" y="900" as="targetPoint" />
          </mxGeometry>
        </mxCell>
        <mxCell id="aqsFvduAmEihCFYsYaOM-130" value="remover" style="rounded=0;whiteSpace=wrap;html=1;fillColor=#d5e8d4;strokeColor=#82b366;" vertex="1" parent="1">
          <mxGeometry x="1860" y="800" width="120" height="60" as="geometry" />
        </mxCell>
        <mxCell id="aqsFvduAmEihCFYsYaOM-132" value="Fim" style="ellipse;whiteSpace=wrap;html=1;fillColor=#f8cecc;strokeColor=#b85450;" vertex="1" parent="1">
          <mxGeometry x="1860" y="890" width="120" height="80" as="geometry" />
        </mxCell>
        <mxCell id="aqsFvduAmEihCFYsYaOM-133" value="Text" style="text;html=1;align=center;verticalAlign=middle;whiteSpace=wrap;rounded=0;" vertex="1" parent="1">
          <mxGeometry x="1980" y="550" width="60" height="30" as="geometry" />
        </mxCell>
        <mxCell id="aqsFvduAmEihCFYsYaOM-134" value="&lt;font face=&quot;Times New Roman&quot;&gt;&lt;span style=&quot;font-size: 24px;&quot;&gt;&lt;b&gt;Análise de viabilidade do produto&lt;/b&gt;&lt;/span&gt;&lt;/font&gt;" style="text;html=1;align=center;verticalAlign=middle;whiteSpace=wrap;rounded=0;" vertex="1" parent="1">
          <mxGeometry x="2140" y="285" width="160" height="30" as="geometry" />
        </mxCell>
        <mxCell id="aqsFvduAmEihCFYsYaOM-136" style="edgeStyle=orthogonalEdgeStyle;rounded=0;orthogonalLoop=1;jettySize=auto;html=1;" edge="1" parent="1" source="aqsFvduAmEihCFYsYaOM-135" target="aqsFvduAmEihCFYsYaOM-137">
          <mxGeometry relative="1" as="geometry">
            <mxPoint x="2220" y="490" as="targetPoint" />
          </mxGeometry>
        </mxCell>
        <mxCell id="aqsFvduAmEihCFYsYaOM-135" value="Início" style="ellipse;whiteSpace=wrap;html=1;fillColor=#fff2cc;strokeColor=#d6b656;" vertex="1" parent="1">
          <mxGeometry x="2160" y="350" width="120" height="80" as="geometry" />
        </mxCell>
        <mxCell id="aqsFvduAmEihCFYsYaOM-138" style="edgeStyle=orthogonalEdgeStyle;rounded=0;orthogonalLoop=1;jettySize=auto;html=1;" edge="1" parent="1" source="aqsFvduAmEihCFYsYaOM-137" target="aqsFvduAmEihCFYsYaOM-139">
          <mxGeometry relative="1" as="geometry">
            <mxPoint x="2220" y="570" as="targetPoint" />
          </mxGeometry>
        </mxCell>
        <mxCell id="aqsFvduAmEihCFYsYaOM-137" value="Após cadastro do lote/produção verificar insumos" style="rounded=0;whiteSpace=wrap;html=1;fillColor=#d5e8d4;strokeColor=#82b366;" vertex="1" parent="1">
          <mxGeometry x="2160" y="460" width="120" height="60" as="geometry" />
        </mxCell>
        <mxCell id="aqsFvduAmEihCFYsYaOM-140" style="edgeStyle=orthogonalEdgeStyle;rounded=0;orthogonalLoop=1;jettySize=auto;html=1;" edge="1" parent="1" source="aqsFvduAmEihCFYsYaOM-139" target="aqsFvduAmEihCFYsYaOM-142">
          <mxGeometry relative="1" as="geometry">
            <mxPoint x="2340" y="600" as="targetPoint" />
          </mxGeometry>
        </mxCell>
        <mxCell id="aqsFvduAmEihCFYsYaOM-141" value="não" style="edgeLabel;html=1;align=center;verticalAlign=middle;resizable=0;points=[];" vertex="1" connectable="0" parent="aqsFvduAmEihCFYsYaOM-140">
          <mxGeometry x="0.2964" y="-3" relative="1" as="geometry">
            <mxPoint as="offset" />
          </mxGeometry>
        </mxCell>
        <mxCell id="aqsFvduAmEihCFYsYaOM-146" style="edgeStyle=orthogonalEdgeStyle;rounded=0;orthogonalLoop=1;jettySize=auto;html=1;" edge="1" parent="1" source="aqsFvduAmEihCFYsYaOM-139" target="aqsFvduAmEihCFYsYaOM-148">
          <mxGeometry relative="1" as="geometry">
            <mxPoint x="2220" y="700" as="targetPoint" />
            <Array as="points">
              <mxPoint x="2220" y="670" />
              <mxPoint x="2221" y="670" />
            </Array>
          </mxGeometry>
        </mxCell>
        <mxCell id="aqsFvduAmEihCFYsYaOM-147" value="sim" style="edgeLabel;html=1;align=center;verticalAlign=middle;resizable=0;points=[];" vertex="1" connectable="0" parent="aqsFvduAmEihCFYsYaOM-146">
          <mxGeometry x="-0.1736" y="2" relative="1" as="geometry">
            <mxPoint as="offset" />
          </mxGeometry>
        </mxCell>
        <mxCell id="aqsFvduAmEihCFYsYaOM-139" value="quantidade de materiais correto" style="rhombus;whiteSpace=wrap;html=1;fillColor=#ffe6cc;strokeColor=#d79b00;" vertex="1" parent="1">
          <mxGeometry x="2165" y="560" width="110" height="80" as="geometry" />
        </mxCell>
        <mxCell id="aqsFvduAmEihCFYsYaOM-144" style="edgeStyle=orthogonalEdgeStyle;rounded=0;orthogonalLoop=1;jettySize=auto;html=1;" edge="1" parent="1" source="aqsFvduAmEihCFYsYaOM-142" target="aqsFvduAmEihCFYsYaOM-145">
          <mxGeometry relative="1" as="geometry">
            <mxPoint x="2510" y="597" as="targetPoint" />
          </mxGeometry>
        </mxCell>
        <mxCell id="aqsFvduAmEihCFYsYaOM-142" value="indicador de falta de materiais aparece" style="rounded=0;whiteSpace=wrap;html=1;fillColor=#d5e8d4;strokeColor=#82b366;" vertex="1" parent="1">
          <mxGeometry x="2320" y="567" width="120" height="60" as="geometry" />
        </mxCell>
        <mxCell id="aqsFvduAmEihCFYsYaOM-162" style="edgeStyle=orthogonalEdgeStyle;rounded=0;orthogonalLoop=1;jettySize=auto;html=1;entryX=1;entryY=0.5;entryDx=0;entryDy=0;" edge="1" parent="1" source="aqsFvduAmEihCFYsYaOM-145" target="aqsFvduAmEihCFYsYaOM-161">
          <mxGeometry relative="1" as="geometry">
            <Array as="points">
              <mxPoint x="2560" y="1130" />
            </Array>
          </mxGeometry>
        </mxCell>
        <mxCell id="aqsFvduAmEihCFYsYaOM-145" value="verificar com clinte" style="rounded=0;whiteSpace=wrap;html=1;fillColor=#d5e8d4;strokeColor=#82b366;" vertex="1" parent="1">
          <mxGeometry x="2481" y="567" width="120" height="60" as="geometry" />
        </mxCell>
        <mxCell id="aqsFvduAmEihCFYsYaOM-149" style="edgeStyle=orthogonalEdgeStyle;rounded=0;orthogonalLoop=1;jettySize=auto;html=1;" edge="1" parent="1" source="aqsFvduAmEihCFYsYaOM-148" target="aqsFvduAmEihCFYsYaOM-150">
          <mxGeometry relative="1" as="geometry">
            <mxPoint x="2220" y="800" as="targetPoint" />
          </mxGeometry>
        </mxCell>
        <mxCell id="aqsFvduAmEihCFYsYaOM-148" value="seguir com viabilidade&amp;nbsp;" style="rounded=0;whiteSpace=wrap;html=1;fillColor=#d5e8d4;strokeColor=#82b366;" vertex="1" parent="1">
          <mxGeometry x="2160" y="695" width="120" height="60" as="geometry" />
        </mxCell>
        <mxCell id="aqsFvduAmEihCFYsYaOM-151" style="edgeStyle=orthogonalEdgeStyle;rounded=0;orthogonalLoop=1;jettySize=auto;html=1;" edge="1" parent="1" source="aqsFvduAmEihCFYsYaOM-150" target="aqsFvduAmEihCFYsYaOM-152">
          <mxGeometry relative="1" as="geometry">
            <mxPoint x="2220" y="890" as="targetPoint" />
          </mxGeometry>
        </mxCell>
        <mxCell id="aqsFvduAmEihCFYsYaOM-150" value="contagem de peças&amp;nbsp;" style="rounded=0;whiteSpace=wrap;html=1;fillColor=#d5e8d4;strokeColor=#82b366;" vertex="1" parent="1">
          <mxGeometry x="2160" y="785" width="120" height="60" as="geometry" />
        </mxCell>
        <mxCell id="aqsFvduAmEihCFYsYaOM-153" style="edgeStyle=orthogonalEdgeStyle;rounded=0;orthogonalLoop=1;jettySize=auto;html=1;" edge="1" parent="1" source="aqsFvduAmEihCFYsYaOM-152" target="aqsFvduAmEihCFYsYaOM-154">
          <mxGeometry relative="1" as="geometry">
            <mxPoint x="2340" y="930" as="targetPoint" />
          </mxGeometry>
        </mxCell>
        <mxCell id="aqsFvduAmEihCFYsYaOM-155" value="não" style="edgeLabel;html=1;align=center;verticalAlign=middle;resizable=0;points=[];" vertex="1" connectable="0" parent="aqsFvduAmEihCFYsYaOM-153">
          <mxGeometry x="-0.0571" y="-2" relative="1" as="geometry">
            <mxPoint as="offset" />
          </mxGeometry>
        </mxCell>
        <mxCell id="aqsFvduAmEihCFYsYaOM-157" style="edgeStyle=orthogonalEdgeStyle;rounded=0;orthogonalLoop=1;jettySize=auto;html=1;" edge="1" parent="1" source="aqsFvduAmEihCFYsYaOM-152" target="aqsFvduAmEihCFYsYaOM-159">
          <mxGeometry relative="1" as="geometry">
            <mxPoint x="2220" y="1020" as="targetPoint" />
          </mxGeometry>
        </mxCell>
        <mxCell id="aqsFvduAmEihCFYsYaOM-158" value="sim" style="edgeLabel;html=1;align=center;verticalAlign=middle;resizable=0;points=[];" vertex="1" connectable="0" parent="aqsFvduAmEihCFYsYaOM-157">
          <mxGeometry x="-0.4852" y="3" relative="1" as="geometry">
            <mxPoint as="offset" />
          </mxGeometry>
        </mxCell>
        <mxCell id="aqsFvduAmEihCFYsYaOM-152" value="quantidade correta" style="rhombus;whiteSpace=wrap;html=1;fillColor=#ffe6cc;strokeColor=#d79b00;" vertex="1" parent="1">
          <mxGeometry x="2170" y="890" width="100" height="80" as="geometry" />
        </mxCell>
        <mxCell id="aqsFvduAmEihCFYsYaOM-154" value="indicador de falta d peças&amp;nbsp;" style="rounded=0;whiteSpace=wrap;html=1;fillColor=#d5e8d4;strokeColor=#82b366;" vertex="1" parent="1">
          <mxGeometry x="2340" y="900" width="120" height="60" as="geometry" />
        </mxCell>
        <mxCell id="aqsFvduAmEihCFYsYaOM-156" style="edgeStyle=orthogonalEdgeStyle;rounded=0;orthogonalLoop=1;jettySize=auto;html=1;entryX=0.383;entryY=0.983;entryDx=0;entryDy=0;entryPerimeter=0;" edge="1" parent="1" source="aqsFvduAmEihCFYsYaOM-154" target="aqsFvduAmEihCFYsYaOM-145">
          <mxGeometry relative="1" as="geometry" />
        </mxCell>
        <mxCell id="aqsFvduAmEihCFYsYaOM-160" style="edgeStyle=orthogonalEdgeStyle;rounded=0;orthogonalLoop=1;jettySize=auto;html=1;" edge="1" parent="1" source="aqsFvduAmEihCFYsYaOM-159" target="aqsFvduAmEihCFYsYaOM-161">
          <mxGeometry relative="1" as="geometry">
            <mxPoint x="2220" y="1130" as="targetPoint" />
          </mxGeometry>
        </mxCell>
        <mxCell id="aqsFvduAmEihCFYsYaOM-159" value="seguir com produção" style="rounded=0;whiteSpace=wrap;html=1;fillColor=#d5e8d4;strokeColor=#82b366;" vertex="1" parent="1">
          <mxGeometry x="2160" y="1010" width="120" height="60" as="geometry" />
        </mxCell>
        <mxCell id="aqsFvduAmEihCFYsYaOM-161" value="Fim" style="ellipse;whiteSpace=wrap;html=1;fillColor=#f8cecc;strokeColor=#b85450;" vertex="1" parent="1">
          <mxGeometry x="2160" y="1090" width="120" height="80" as="geometry" />
        </mxCell>
        <mxCell id="aqsFvduAmEihCFYsYaOM-200" style="edgeStyle=orthogonalEdgeStyle;rounded=0;orthogonalLoop=1;jettySize=auto;html=1;" edge="1" parent="1" source="aqsFvduAmEihCFYsYaOM-201" target="aqsFvduAmEihCFYsYaOM-203">
          <mxGeometry relative="1" as="geometry">
            <mxPoint x="2740" y="437" as="targetPoint" />
          </mxGeometry>
        </mxCell>
        <mxCell id="aqsFvduAmEihCFYsYaOM-201" value="Início" style="ellipse;whiteSpace=wrap;html=1;fillColor=#fff2cc;strokeColor=#d6b656;" vertex="1" parent="1">
          <mxGeometry x="2680" y="312" width="120" height="80" as="geometry" />
        </mxCell>
        <mxCell id="aqsFvduAmEihCFYsYaOM-202" style="edgeStyle=orthogonalEdgeStyle;rounded=0;orthogonalLoop=1;jettySize=auto;html=1;" edge="1" parent="1" source="aqsFvduAmEihCFYsYaOM-203" target="aqsFvduAmEihCFYsYaOM-205">
          <mxGeometry relative="1" as="geometry">
            <mxPoint x="2740" y="517" as="targetPoint" />
          </mxGeometry>
        </mxCell>
        <mxCell id="aqsFvduAmEihCFYsYaOM-203" value="Clicar em &quot;produtos&quot;" style="rounded=0;whiteSpace=wrap;html=1;fillColor=#d5e8d4;strokeColor=#82b366;" vertex="1" parent="1">
          <mxGeometry x="2680" y="407" width="120" height="60" as="geometry" />
        </mxCell>
        <mxCell id="aqsFvduAmEihCFYsYaOM-204" style="edgeStyle=orthogonalEdgeStyle;rounded=0;orthogonalLoop=1;jettySize=auto;html=1;" edge="1" parent="1" source="aqsFvduAmEihCFYsYaOM-205" target="aqsFvduAmEihCFYsYaOM-207">
          <mxGeometry relative="1" as="geometry">
            <mxPoint x="2740" y="587" as="targetPoint" />
          </mxGeometry>
        </mxCell>
        <mxCell id="aqsFvduAmEihCFYsYaOM-205" value="escolher produtos" style="rounded=0;whiteSpace=wrap;html=1;fillColor=#d5e8d4;strokeColor=#82b366;" vertex="1" parent="1">
          <mxGeometry x="2680" y="487" width="120" height="60" as="geometry" />
        </mxCell>
        <mxCell id="aqsFvduAmEihCFYsYaOM-207" value="editar produto" style="rounded=0;whiteSpace=wrap;html=1;fillColor=#d5e8d4;strokeColor=#82b366;" vertex="1" parent="1">
          <mxGeometry x="2680" y="567" width="120" height="60" as="geometry" />
        </mxCell>
        <mxCell id="aqsFvduAmEihCFYsYaOM-208" style="edgeStyle=orthogonalEdgeStyle;rounded=0;orthogonalLoop=1;jettySize=auto;html=1;" edge="1" parent="1" source="aqsFvduAmEihCFYsYaOM-209" target="aqsFvduAmEihCFYsYaOM-212">
          <mxGeometry relative="1" as="geometry">
            <mxPoint x="2740" y="757" as="targetPoint" />
          </mxGeometry>
        </mxCell>
        <mxCell id="aqsFvduAmEihCFYsYaOM-209" value="editor informações" style="rounded=0;whiteSpace=wrap;html=1;fillColor=#d5e8d4;strokeColor=#82b366;" vertex="1" parent="1">
          <mxGeometry x="2680" y="652" width="120" height="60" as="geometry" />
        </mxCell>
        <mxCell id="aqsFvduAmEihCFYsYaOM-210" style="edgeStyle=orthogonalEdgeStyle;rounded=0;orthogonalLoop=1;jettySize=auto;html=1;" edge="1" parent="1" source="aqsFvduAmEihCFYsYaOM-212" target="aqsFvduAmEihCFYsYaOM-216">
          <mxGeometry relative="1" as="geometry">
            <mxPoint x="2740" y="907" as="targetPoint" />
          </mxGeometry>
        </mxCell>
        <mxCell id="aqsFvduAmEihCFYsYaOM-211" value="sim" style="edgeLabel;html=1;align=center;verticalAlign=middle;resizable=0;points=[];" vertex="1" connectable="0" parent="aqsFvduAmEihCFYsYaOM-210">
          <mxGeometry x="-0.0729" y="-3" relative="1" as="geometry">
            <mxPoint as="offset" />
          </mxGeometry>
        </mxCell>
        <mxCell id="aqsFvduAmEihCFYsYaOM-212" value="as informações editados são válidos?" style="rhombus;whiteSpace=wrap;html=1;fillColor=#ffe6cc;strokeColor=#d79b00;" vertex="1" parent="1">
          <mxGeometry x="2670" y="742" width="140" height="90" as="geometry" />
        </mxCell>
        <mxCell id="aqsFvduAmEihCFYsYaOM-213" style="edgeStyle=orthogonalEdgeStyle;rounded=0;orthogonalLoop=1;jettySize=auto;html=1;entryX=1.008;entryY=0.383;entryDx=0;entryDy=0;entryPerimeter=0;" edge="1" parent="1" source="aqsFvduAmEihCFYsYaOM-212" target="aqsFvduAmEihCFYsYaOM-207">
          <mxGeometry relative="1" as="geometry">
            <Array as="points">
              <mxPoint x="2830" y="787" />
              <mxPoint x="2830" y="590" />
            </Array>
          </mxGeometry>
        </mxCell>
        <mxCell id="aqsFvduAmEihCFYsYaOM-214" value="não" style="edgeLabel;html=1;align=center;verticalAlign=middle;resizable=0;points=[];" vertex="1" connectable="0" parent="aqsFvduAmEihCFYsYaOM-213">
          <mxGeometry x="-0.244" y="2" relative="1" as="geometry">
            <mxPoint as="offset" />
          </mxGeometry>
        </mxCell>
        <mxCell id="aqsFvduAmEihCFYsYaOM-215" style="edgeStyle=orthogonalEdgeStyle;rounded=0;orthogonalLoop=1;jettySize=auto;html=1;" edge="1" parent="1" source="aqsFvduAmEihCFYsYaOM-216" target="aqsFvduAmEihCFYsYaOM-217">
          <mxGeometry relative="1" as="geometry">
            <mxPoint x="2740" y="977" as="targetPoint" />
          </mxGeometry>
        </mxCell>
        <mxCell id="aqsFvduAmEihCFYsYaOM-216" value="atualizar produto" style="rounded=0;whiteSpace=wrap;html=1;fillColor=#d5e8d4;strokeColor=#82b366;" vertex="1" parent="1">
          <mxGeometry x="2680" y="867" width="120" height="60" as="geometry" />
        </mxCell>
        <mxCell id="aqsFvduAmEihCFYsYaOM-217" value="Fim" style="ellipse;whiteSpace=wrap;html=1;fillColor=#f8cecc;strokeColor=#b85450;" vertex="1" parent="1">
          <mxGeometry x="2680" y="952" width="120" height="80" as="geometry" />
        </mxCell>
        <mxCell id="aqsFvduAmEihCFYsYaOM-218" value="&lt;font face=&quot;Times New Roman&quot;&gt;&lt;span style=&quot;font-size: 24px;&quot;&gt;&lt;b&gt;Atualizar Produto&lt;/b&gt;&lt;/span&gt;&lt;/font&gt;" style="text;html=1;align=center;verticalAlign=middle;resizable=0;points=[];autosize=1;strokeColor=none;fillColor=none;" vertex="1" parent="1">
          <mxGeometry x="2630" y="255" width="210" height="40" as="geometry" />
        </mxCell>
        <mxCell id="aqsFvduAmEihCFYsYaOM-219" value="&lt;font face=&quot;Times New Roman&quot;&gt;&lt;span style=&quot;font-size: 24px;&quot;&gt;&lt;b&gt;Conclusão de Pedido&lt;/b&gt;&lt;/span&gt;&lt;/font&gt;" style="text;html=1;align=center;verticalAlign=middle;whiteSpace=wrap;rounded=0;" vertex="1" parent="1">
          <mxGeometry x="2970" y="282" width="160" height="30" as="geometry" />
        </mxCell>
        <mxCell id="aqsFvduAmEihCFYsYaOM-221" style="edgeStyle=orthogonalEdgeStyle;rounded=0;orthogonalLoop=1;jettySize=auto;html=1;" edge="1" parent="1" source="aqsFvduAmEihCFYsYaOM-220" target="aqsFvduAmEihCFYsYaOM-222">
          <mxGeometry relative="1" as="geometry">
            <mxPoint x="3060" y="470" as="targetPoint" />
          </mxGeometry>
        </mxCell>
        <mxCell id="aqsFvduAmEihCFYsYaOM-220" value="" style="ellipse;whiteSpace=wrap;html=1;fillColor=#fff2cc;strokeColor=#d6b656;" vertex="1" parent="1">
          <mxGeometry x="3000" y="340" width="120" height="80" as="geometry" />
        </mxCell>
        <mxCell id="aqsFvduAmEihCFYsYaOM-223" style="edgeStyle=orthogonalEdgeStyle;rounded=0;orthogonalLoop=1;jettySize=auto;html=1;" edge="1" parent="1" source="aqsFvduAmEihCFYsYaOM-222" target="aqsFvduAmEihCFYsYaOM-224">
          <mxGeometry relative="1" as="geometry">
            <mxPoint x="3060" y="560" as="targetPoint" />
          </mxGeometry>
        </mxCell>
        <mxCell id="aqsFvduAmEihCFYsYaOM-222" value="clicar na tela de &quot;checklist&quot;" style="rounded=0;whiteSpace=wrap;html=1;fillColor=#d5e8d4;strokeColor=#82b366;" vertex="1" parent="1">
          <mxGeometry x="3000" y="440" width="120" height="60" as="geometry" />
        </mxCell>
        <mxCell id="aqsFvduAmEihCFYsYaOM-225" style="edgeStyle=orthogonalEdgeStyle;rounded=0;orthogonalLoop=1;jettySize=auto;html=1;" edge="1" parent="1" source="aqsFvduAmEihCFYsYaOM-224" target="aqsFvduAmEihCFYsYaOM-226">
          <mxGeometry relative="1" as="geometry">
            <mxPoint x="3060" y="630" as="targetPoint" />
          </mxGeometry>
        </mxCell>
        <mxCell id="aqsFvduAmEihCFYsYaOM-224" value="pesquisou o pedido" style="rounded=0;whiteSpace=wrap;html=1;fillColor=#d5e8d4;strokeColor=#82b366;" vertex="1" parent="1">
          <mxGeometry x="3000" y="530" width="120" height="60" as="geometry" />
        </mxCell>
        <mxCell id="aqsFvduAmEihCFYsYaOM-227" style="edgeStyle=orthogonalEdgeStyle;rounded=0;orthogonalLoop=1;jettySize=auto;html=1;" edge="1" parent="1" source="aqsFvduAmEihCFYsYaOM-226" target="aqsFvduAmEihCFYsYaOM-232">
          <mxGeometry relative="1" as="geometry">
            <mxPoint x="3060" y="770" as="targetPoint" />
          </mxGeometry>
        </mxCell>
        <mxCell id="aqsFvduAmEihCFYsYaOM-228" value="sim" style="edgeLabel;html=1;align=center;verticalAlign=middle;resizable=0;points=[];" vertex="1" connectable="0" parent="aqsFvduAmEihCFYsYaOM-227">
          <mxGeometry x="0.0991" y="1" relative="1" as="geometry">
            <mxPoint as="offset" />
          </mxGeometry>
        </mxCell>
        <mxCell id="aqsFvduAmEihCFYsYaOM-229" style="edgeStyle=orthogonalEdgeStyle;rounded=0;orthogonalLoop=1;jettySize=auto;html=1;" edge="1" parent="1" source="aqsFvduAmEihCFYsYaOM-226" target="aqsFvduAmEihCFYsYaOM-231">
          <mxGeometry relative="1" as="geometry">
            <mxPoint x="3190" y="655" as="targetPoint" />
          </mxGeometry>
        </mxCell>
        <mxCell id="aqsFvduAmEihCFYsYaOM-230" value="não" style="edgeLabel;html=1;align=center;verticalAlign=middle;resizable=0;points=[];" vertex="1" connectable="0" parent="aqsFvduAmEihCFYsYaOM-229">
          <mxGeometry x="0.389" y="-5" relative="1" as="geometry">
            <mxPoint as="offset" />
          </mxGeometry>
        </mxCell>
        <mxCell id="aqsFvduAmEihCFYsYaOM-226" value="o pedido existe ?" style="rhombus;whiteSpace=wrap;html=1;fillColor=#ffe6cc;strokeColor=#d79b00;" vertex="1" parent="1">
          <mxGeometry x="3005" y="615" width="110" height="80" as="geometry" />
        </mxCell>
        <mxCell id="aqsFvduAmEihCFYsYaOM-231" value="solicitar cadastro de cliente/produto" style="rounded=0;whiteSpace=wrap;html=1;fillColor=#d5e8d4;strokeColor=#82b366;" vertex="1" parent="1">
          <mxGeometry x="3180" y="625" width="120" height="60" as="geometry" />
        </mxCell>
        <mxCell id="aqsFvduAmEihCFYsYaOM-233" style="edgeStyle=orthogonalEdgeStyle;rounded=0;orthogonalLoop=1;jettySize=auto;html=1;" edge="1" parent="1" source="aqsFvduAmEihCFYsYaOM-232" target="aqsFvduAmEihCFYsYaOM-234">
          <mxGeometry relative="1" as="geometry">
            <mxPoint x="3060" y="850" as="targetPoint" />
          </mxGeometry>
        </mxCell>
        <mxCell id="aqsFvduAmEihCFYsYaOM-232" value="fazer um &quot;check&quot;&lt;div&gt;no produto&lt;/div&gt;" style="rounded=0;whiteSpace=wrap;html=1;fillColor=#d5e8d4;strokeColor=#82b366;" vertex="1" parent="1">
          <mxGeometry x="3000" y="740" width="120" height="60" as="geometry" />
        </mxCell>
        <mxCell id="aqsFvduAmEihCFYsYaOM-235" style="edgeStyle=orthogonalEdgeStyle;rounded=0;orthogonalLoop=1;jettySize=auto;html=1;" edge="1" parent="1" source="aqsFvduAmEihCFYsYaOM-234" target="aqsFvduAmEihCFYsYaOM-236">
          <mxGeometry relative="1" as="geometry">
            <mxPoint x="3060" y="930" as="targetPoint" />
          </mxGeometry>
        </mxCell>
        <mxCell id="aqsFvduAmEihCFYsYaOM-234" value="pedido concluído" style="rounded=0;whiteSpace=wrap;html=1;fillColor=#d5e8d4;strokeColor=#82b366;" vertex="1" parent="1">
          <mxGeometry x="3000" y="820" width="120" height="60" as="geometry" />
        </mxCell>
        <mxCell id="aqsFvduAmEihCFYsYaOM-236" value="Fim" style="ellipse;whiteSpace=wrap;html=1;fillColor=#f8cecc;strokeColor=#b85450;" vertex="1" parent="1">
          <mxGeometry x="3000" y="900" width="120" height="80" as="geometry" />
        </mxCell>
      </root>
    </mxGraphModel>
  </diagram>
</mxfile>
